# xmcd CD database file
#
# Track frame offsets:
#	150
#	15560
#	42735
#	77522
#	117937
#	148642
#	169892
#	188642
#	213287
#
# Disc length: 3377 seconds
#
# Revision: 1
# Processed by: cddbd v1.5.1PL0 Copyright (c) Steve Scherf et al.
# Submitted via: CDex 1.51
#
DISCID=750d2f09
DTITLE=不破大輔 - TWENTY EIGHT
DYEAR=2001
DGENRE=Jazz
TTITLE0=Picking
TTITLE1=001206072
TTITLE2=Lady's Blues
TTITLE3=Night
TTITLE4=001206071
TTITLE5=001206073 〜 Taratattarattara
TTITLE6=Goodbye Pork Pie Hat
TTITLE7=Hikouki
TTITLE8=Orfeu Negro (Manha de Carnaval)
EXTD=YEAR: 2001
EXTT0=
EXTT1=
EXTT2=
EXTT3=
EXTT4=
EXTT5=
EXTT6=
EXTT7=
EXTT8=
PLAYORDER=
